# xmcd
#
# Track frame offsets:
#	150
#	14841
#	27704
#	43049
#	56952
#	69107
#	82900
#	94732
#	105061
#	117873
#
# Disc length: 1739 seconds
#
# Revision: 1
# Processed by: cddbd v1.5.2PL0 Copyright (c) Steve Scherf et al.
# Submitted via: audiograbber 1.83.01
#
DISCID=7b06c90a
DTITLE=Dolly Parton - The Seeker We Used To
DYEAR=1975
DGENRE=Country
TTITLE0=We Used To
TTITLE1=The Love I Used To Call Mine
TTITLE2=My Heart Started Breaking
TTITLE3=Most Of All Why
TTITLE4=Bobby`s Arms
TTITLE5=The Seeker
TTITLE6=Hold Me
TTITLE7=Because I Love You
TTITLE8=Only The Memory Remains
TTITLE9=I`ll Remember You As Mine
EXTD=
EXTT0=
EXTT1=
EXTT2=
EXTT3=
EXTT4=
EXTT5=
EXTT6=
EXTT7=
EXTT8=
EXTT9=
PLAYORDER=
